<svg xmlns="http://www.w3.org/2000/svg" xmlns:xlink="http://www.w3.org/1999/xlink" width="500" zoomAndPan="magnify" viewBox="0 0 375 374.999991" height="500" preserveAspectRatio="xMidYMid meet" version="1.0"><defs><g/></defs><g fill="#ffffff" fill-opacity="1"><g transform="translate(75.059625, 208.841513)"><g><path d="M 46.34375 -10.984375 L 46.34375 0 L 2.453125 0 L 2.453125 -8.6875 L 27.15625 -38.015625 L 3.078125 -38.015625 L 3.078125 -49 L 45.296875 -49 L 45.296875 -40.3125 L 20.578125 -10.984375 Z M 46.34375 -10.984375 "/></g></g></g><g fill="#ffffff" fill-opacity="1"><g transform="translate(128.677023, 208.841513)"><g><path d="M 27.515625 0.984375 C 20.234375 0.984375 14.570312 -1 10.53125 -4.96875 C 6.5 -8.9375 4.484375 -14.5625 4.484375 -21.84375 L 4.484375 -49 L 18.34375 -49 L 18.34375 -22.265625 C 18.34375 -14.421875 21.445312 -10.5 27.65625 -10.5 C 33.8125 -10.5 36.890625 -14.421875 36.890625 -22.265625 L 36.890625 -49 L 50.546875 -49 L 50.546875 -21.84375 C 50.546875 -14.5625 48.523438 -8.9375 44.484375 -4.96875 C 40.453125 -1 34.796875 0.984375 27.515625 0.984375 Z M 27.515625 0.984375 "/></g></g></g><g fill="#ffffff" fill-opacity="1"><g transform="translate(189.784006, 208.841513)"><g><path d="M 4.90625 -49 L 18.765625 -49 L 18.765625 -10.984375 L 42.140625 -10.984375 L 42.140625 0 L 4.90625 0 Z M 4.90625 -49 "/></g></g></g><g fill="#ffffff" fill-opacity="1"><g transform="translate(238.571665, 208.841513)"><g><path d="M 27.515625 0.984375 C 20.234375 0.984375 14.570312 -1 10.53125 -4.96875 C 6.5 -8.9375 4.484375 -14.5625 4.484375 -21.84375 L 4.484375 -49 L 18.34375 -49 L 18.34375 -22.265625 C 18.34375 -14.421875 21.445312 -10.5 27.65625 -10.5 C 33.8125 -10.5 36.890625 -14.421875 36.890625 -22.265625 L 36.890625 -49 L 50.546875 -49 L 50.546875 -21.84375 C 50.546875 -14.5625 48.523438 -8.9375 44.484375 -4.96875 C 40.453125 -1 34.796875 0.984375 27.515625 0.984375 Z M 27.515625 0.984375 "/></g></g></g><g fill="#ffffff" fill-opacity="1"><g transform="translate(80.309625, 229.273007)"><g><path d="M 3.4375 0.09375 C 2.851562 0.09375 2.285156 0.00390625 1.734375 -0.171875 C 1.191406 -0.359375 0.765625 -0.597656 0.453125 -0.890625 L 0.875 -1.765625 C 1.164062 -1.492188 1.539062 -1.273438 2 -1.109375 C 2.46875 -0.941406 2.945312 -0.859375 3.4375 -0.859375 C 4.082031 -0.859375 4.566406 -0.96875 4.890625 -1.1875 C 5.210938 -1.40625 5.375 -1.695312 5.375 -2.0625 C 5.375 -2.332031 5.285156 -2.550781 5.109375 -2.71875 C 4.929688 -2.882812 4.710938 -3.007812 4.453125 -3.09375 C 4.203125 -3.1875 3.84375 -3.285156 3.375 -3.390625 C 2.789062 -3.535156 2.316406 -3.675781 1.953125 -3.8125 C 1.597656 -3.957031 1.289062 -4.175781 1.03125 -4.46875 C 0.769531 -4.757812 0.640625 -5.15625 0.640625 -5.65625 C 0.640625 -6.070312 0.75 -6.445312 0.96875 -6.78125 C 1.1875 -7.113281 1.519531 -7.378906 1.96875 -7.578125 C 2.414062 -7.785156 2.96875 -7.890625 3.625 -7.890625 C 4.09375 -7.890625 4.546875 -7.828125 4.984375 -7.703125 C 5.429688 -7.585938 5.816406 -7.421875 6.140625 -7.203125 L 5.765625 -6.3125 C 5.441406 -6.519531 5.09375 -6.675781 4.71875 -6.78125 C 4.351562 -6.882812 3.988281 -6.9375 3.625 -6.9375 C 3 -6.9375 2.523438 -6.820312 2.203125 -6.59375 C 1.890625 -6.363281 1.734375 -6.066406 1.734375 -5.703125 C 1.734375 -5.429688 1.820312 -5.210938 2 -5.046875 C 2.175781 -4.878906 2.394531 -4.75 2.65625 -4.65625 C 2.925781 -4.5625 3.289062 -4.460938 3.75 -4.359375 C 4.332031 -4.222656 4.800781 -4.082031 5.15625 -3.9375 C 5.507812 -3.800781 5.816406 -3.585938 6.078125 -3.296875 C 6.335938 -3.003906 6.46875 -2.613281 6.46875 -2.125 C 6.46875 -1.71875 6.351562 -1.34375 6.125 -1 C 5.90625 -0.664062 5.566406 -0.398438 5.109375 -0.203125 C 4.660156 -0.00390625 4.101562 0.09375 3.4375 0.09375 Z M 3.4375 0.09375 "/></g></g></g><g fill="#ffffff" fill-opacity="1"><g transform="translate(95.032271, 229.273007)"><g><path d="M 4.21875 -7.796875 C 5.21875 -7.796875 6.007812 -7.550781 6.59375 -7.0625 C 7.175781 -6.582031 7.46875 -5.921875 7.46875 -5.078125 C 7.46875 -4.234375 7.175781 -3.566406 6.59375 -3.078125 C 6.007812 -2.597656 5.21875 -2.359375 4.21875 -2.359375 L 2.28125 -2.359375 L 2.28125 0 L 1.171875 0 L 1.171875 -7.796875 Z M 4.171875 -3.328125 C 4.878906 -3.328125 5.414062 -3.476562 5.78125 -3.78125 C 6.15625 -4.082031 6.34375 -4.515625 6.34375 -5.078125 C 6.34375 -5.640625 6.15625 -6.070312 5.78125 -6.375 C 5.414062 -6.675781 4.878906 -6.828125 4.171875 -6.828125 L 2.28125 -6.828125 L 2.28125 -3.328125 Z M 4.171875 -3.328125 "/></g></g></g><g fill="#ffffff" fill-opacity="1"><g transform="translate(110.880523, 229.273007)"><g><path d="M 4.6875 0.09375 C 3.90625 0.09375 3.195312 -0.078125 2.5625 -0.421875 C 1.925781 -0.773438 1.425781 -1.253906 1.0625 -1.859375 C 0.707031 -2.472656 0.53125 -3.15625 0.53125 -3.90625 C 0.53125 -4.65625 0.707031 -5.332031 1.0625 -5.9375 C 1.425781 -6.539062 1.925781 -7.015625 2.5625 -7.359375 C 3.195312 -7.710938 3.90625 -7.890625 4.6875 -7.890625 C 5.46875 -7.890625 6.171875 -7.710938 6.796875 -7.359375 C 7.429688 -7.015625 7.925781 -6.539062 8.28125 -5.9375 C 8.644531 -5.332031 8.828125 -4.65625 8.828125 -3.90625 C 8.828125 -3.144531 8.644531 -2.460938 8.28125 -1.859375 C 7.925781 -1.253906 7.429688 -0.773438 6.796875 -0.421875 C 6.171875 -0.078125 5.46875 0.09375 4.6875 0.09375 Z M 4.6875 -0.90625 C 5.257812 -0.90625 5.773438 -1.035156 6.234375 -1.296875 C 6.691406 -1.554688 7.050781 -1.910156 7.3125 -2.359375 C 7.570312 -2.816406 7.703125 -3.332031 7.703125 -3.90625 C 7.703125 -4.46875 7.570312 -4.972656 7.3125 -5.421875 C 7.050781 -5.878906 6.691406 -6.238281 6.234375 -6.5 C 5.773438 -6.757812 5.257812 -6.890625 4.6875 -6.890625 C 4.113281 -6.890625 3.59375 -6.757812 3.125 -6.5 C 2.664062 -6.238281 2.304688 -5.878906 2.046875 -5.421875 C 1.785156 -4.972656 1.65625 -4.46875 1.65625 -3.90625 C 1.65625 -3.332031 1.785156 -2.816406 2.046875 -2.359375 C 2.304688 -1.910156 2.664062 -1.554688 3.125 -1.296875 C 3.59375 -1.035156 4.113281 -0.90625 4.6875 -0.90625 Z M 4.6875 -0.90625 "/></g></g></g><g fill="#ffffff" fill-opacity="1"><g transform="translate(128.043838, 229.273007)"><g><path d="M 6.390625 0 L 4.703125 -2.390625 C 4.492188 -2.378906 4.332031 -2.375 4.21875 -2.375 L 2.28125 -2.375 L 2.28125 0 L 1.171875 0 L 1.171875 -7.796875 L 4.21875 -7.796875 C 5.21875 -7.796875 6.007812 -7.550781 6.59375 -7.0625 C 7.175781 -6.582031 7.46875 -5.921875 7.46875 -5.078125 C 7.46875 -4.472656 7.316406 -3.957031 7.015625 -3.53125 C 6.722656 -3.113281 6.300781 -2.8125 5.75 -2.625 L 7.59375 0 Z M 4.171875 -3.3125 C 4.878906 -3.3125 5.414062 -3.460938 5.78125 -3.765625 C 6.15625 -4.078125 6.34375 -4.515625 6.34375 -5.078125 C 6.34375 -5.640625 6.15625 -6.070312 5.78125 -6.375 C 5.414062 -6.675781 4.878906 -6.828125 4.171875 -6.828125 L 2.28125 -6.828125 L 2.28125 -3.3125 Z M 4.171875 -3.3125 "/></g></g></g><g fill="#ffffff" fill-opacity="1"><g transform="translate(143.947811, 229.273007)"><g><path d="M 2.71875 -6.828125 L 0.046875 -6.828125 L 0.046875 -7.796875 L 6.5 -7.796875 L 6.5 -6.828125 L 3.828125 -6.828125 L 3.828125 0 L 2.71875 0 Z M 2.71875 -6.828125 "/></g></g></g><g fill="#ffffff" fill-opacity="1"><g transform="translate(158.291543, 229.273007)"><g><path d="M 3.4375 0.09375 C 2.851562 0.09375 2.285156 0.00390625 1.734375 -0.171875 C 1.191406 -0.359375 0.765625 -0.597656 0.453125 -0.890625 L 0.875 -1.765625 C 1.164062 -1.492188 1.539062 -1.273438 2 -1.109375 C 2.46875 -0.941406 2.945312 -0.859375 3.4375 -0.859375 C 4.082031 -0.859375 4.566406 -0.96875 4.890625 -1.1875 C 5.210938 -1.40625 5.375 -1.695312 5.375 -2.0625 C 5.375 -2.332031 5.285156 -2.550781 5.109375 -2.71875 C 4.929688 -2.882812 4.710938 -3.007812 4.453125 -3.09375 C 4.203125 -3.1875 3.84375 -3.285156 3.375 -3.390625 C 2.789062 -3.535156 2.316406 -3.675781 1.953125 -3.8125 C 1.597656 -3.957031 1.289062 -4.175781 1.03125 -4.46875 C 0.769531 -4.757812 0.640625 -5.15625 0.640625 -5.65625 C 0.640625 -6.070312 0.75 -6.445312 0.96875 -6.78125 C 1.1875 -7.113281 1.519531 -7.378906 1.96875 -7.578125 C 2.414062 -7.785156 2.96875 -7.890625 3.625 -7.890625 C 4.09375 -7.890625 4.546875 -7.828125 4.984375 -7.703125 C 5.429688 -7.585938 5.816406 -7.421875 6.140625 -7.203125 L 5.765625 -6.3125 C 5.441406 -6.519531 5.09375 -6.675781 4.71875 -6.78125 C 4.351562 -6.882812 3.988281 -6.9375 3.625 -6.9375 C 3 -6.9375 2.523438 -6.820312 2.203125 -6.59375 C 1.890625 -6.363281 1.734375 -6.066406 1.734375 -5.703125 C 1.734375 -5.429688 1.820312 -5.210938 2 -5.046875 C 2.175781 -4.878906 2.394531 -4.75 2.65625 -4.65625 C 2.925781 -4.5625 3.289062 -4.460938 3.75 -4.359375 C 4.332031 -4.222656 4.800781 -4.082031 5.15625 -3.9375 C 5.507812 -3.800781 5.816406 -3.585938 6.078125 -3.296875 C 6.335938 -3.003906 6.46875 -2.613281 6.46875 -2.125 C 6.46875 -1.71875 6.351562 -1.34375 6.125 -1 C 5.90625 -0.664062 5.566406 -0.398438 5.109375 -0.203125 C 4.660156 -0.00390625 4.101562 0.09375 3.4375 0.09375 Z M 3.4375 0.09375 "/></g></g></g><g fill="#ffffff" fill-opacity="1"><g transform="translate(173.014189, 229.273007)"><g/></g></g><g fill="#ffffff" fill-opacity="1"><g transform="translate(183.813955, 229.273007)"><g><path d="M 8.40625 0 L 8.390625 -5.6875 L 5.5625 -0.953125 L 5.0625 -0.953125 L 2.234375 -5.640625 L 2.234375 0 L 1.171875 0 L 1.171875 -7.796875 L 2.078125 -7.796875 L 5.34375 -2.3125 L 8.546875 -7.796875 L 9.453125 -7.796875 L 9.46875 0 Z M 8.40625 0 "/></g></g></g><g fill="#ffffff" fill-opacity="1"><g transform="translate(202.258888, 229.273007)"><g><path d="M 6.140625 -1.953125 L 2 -1.953125 L 1.140625 0 L -0.015625 0 L 3.515625 -7.796875 L 4.625 -7.796875 L 8.171875 0 L 7 0 Z M 5.75 -2.84375 L 4.0625 -6.65625 L 2.390625 -2.84375 Z M 5.75 -2.84375 "/></g></g></g><g fill="#ffffff" fill-opacity="1"><g transform="translate(218.218589, 229.273007)"><g><path d="M 6.390625 0 L 4.703125 -2.390625 C 4.492188 -2.378906 4.332031 -2.375 4.21875 -2.375 L 2.28125 -2.375 L 2.28125 0 L 1.171875 0 L 1.171875 -7.796875 L 4.21875 -7.796875 C 5.21875 -7.796875 6.007812 -7.550781 6.59375 -7.0625 C 7.175781 -6.582031 7.46875 -5.921875 7.46875 -5.078125 C 7.46875 -4.472656 7.316406 -3.957031 7.015625 -3.53125 C 6.722656 -3.113281 6.300781 -2.8125 5.75 -2.625 L 7.59375 0 Z M 4.171875 -3.3125 C 4.878906 -3.3125 5.414062 -3.460938 5.78125 -3.765625 C 6.15625 -4.078125 6.34375 -4.515625 6.34375 -5.078125 C 6.34375 -5.640625 6.15625 -6.070312 5.78125 -6.375 C 5.414062 -6.675781 4.878906 -6.828125 4.171875 -6.828125 L 2.28125 -6.828125 L 2.28125 -3.3125 Z M 4.171875 -3.3125 "/></g></g></g><g fill="#ffffff" fill-opacity="1"><g transform="translate(234.122557, 229.273007)"><g><path d="M 3.703125 -3.46875 L 2.28125 -2.015625 L 2.28125 0 L 1.171875 0 L 1.171875 -7.796875 L 2.28125 -7.796875 L 2.28125 -3.4375 L 6.515625 -7.796875 L 7.78125 -7.796875 L 4.453125 -4.296875 L 8 0 L 6.703125 0 Z M 3.703125 -3.46875 "/></g></g></g><g fill="#ffffff" fill-opacity="1"><g transform="translate(249.937375, 229.273007)"><g><path d="M 6.828125 -0.96875 L 6.828125 0 L 1.171875 0 L 1.171875 -7.796875 L 6.671875 -7.796875 L 6.671875 -6.828125 L 2.28125 -6.828125 L 2.28125 -4.4375 L 6.1875 -4.4375 L 6.1875 -3.484375 L 2.28125 -3.484375 L 2.28125 -0.96875 Z M 6.828125 -0.96875 "/></g></g></g><g fill="#ffffff" fill-opacity="1"><g transform="translate(265.206104, 229.273007)"><g><path d="M 2.71875 -6.828125 L 0.046875 -6.828125 L 0.046875 -7.796875 L 6.5 -7.796875 L 6.5 -6.828125 L 3.828125 -6.828125 L 3.828125 0 L 2.71875 0 Z M 2.71875 -6.828125 "/></g></g></g><g fill="#ffffff" fill-opacity="1"><g transform="translate(279.54983, 229.273007)"><g><path d="M 3.4375 0.09375 C 2.851562 0.09375 2.285156 0.00390625 1.734375 -0.171875 C 1.191406 -0.359375 0.765625 -0.597656 0.453125 -0.890625 L 0.875 -1.765625 C 1.164062 -1.492188 1.539062 -1.273438 2 -1.109375 C 2.46875 -0.941406 2.945312 -0.859375 3.4375 -0.859375 C 4.082031 -0.859375 4.566406 -0.96875 4.890625 -1.1875 C 5.210938 -1.40625 5.375 -1.695312 5.375 -2.0625 C 5.375 -2.332031 5.285156 -2.550781 5.109375 -2.71875 C 4.929688 -2.882812 4.710938 -3.007812 4.453125 -3.09375 C 4.203125 -3.1875 3.84375 -3.285156 3.375 -3.390625 C 2.789062 -3.535156 2.316406 -3.675781 1.953125 -3.8125 C 1.597656 -3.957031 1.289062 -4.175781 1.03125 -4.46875 C 0.769531 -4.757812 0.640625 -5.15625 0.640625 -5.65625 C 0.640625 -6.070312 0.75 -6.445312 0.96875 -6.78125 C 1.1875 -7.113281 1.519531 -7.378906 1.96875 -7.578125 C 2.414062 -7.785156 2.96875 -7.890625 3.625 -7.890625 C 4.09375 -7.890625 4.546875 -7.828125 4.984375 -7.703125 C 5.429688 -7.585938 5.816406 -7.421875 6.140625 -7.203125 L 5.765625 -6.3125 C 5.441406 -6.519531 5.09375 -6.675781 4.71875 -6.78125 C 4.351562 -6.882812 3.988281 -6.9375 3.625 -6.9375 C 3 -6.9375 2.523438 -6.820312 2.203125 -6.59375 C 1.890625 -6.363281 1.734375 -6.066406 1.734375 -5.703125 C 1.734375 -5.429688 1.820312 -5.210938 2 -5.046875 C 2.175781 -4.878906 2.394531 -4.75 2.65625 -4.65625 C 2.925781 -4.5625 3.289062 -4.460938 3.75 -4.359375 C 4.332031 -4.222656 4.800781 -4.082031 5.15625 -3.9375 C 5.507812 -3.800781 5.816406 -3.585938 6.078125 -3.296875 C 6.335938 -3.003906 6.46875 -2.613281 6.46875 -2.125 C 6.46875 -1.71875 6.351562 -1.34375 6.125 -1 C 5.90625 -0.664062 5.566406 -0.398438 5.109375 -0.203125 C 4.660156 -0.00390625 4.101562 0.09375 3.4375 0.09375 Z M 3.4375 0.09375 "/></g></g></g></svg>